<svg version="1" xmlns="http://www.w3.org/2000/svg" width="1152" height="1152" viewBox="0 0 864.000000 864.000000"><path d="M437.7 99.6c-.1.1-5.4.5-11.7.8-6.3.3-13.4.8-15.7 1.1-2.4.3-6 .7-8 1-9.2 1.1-28.5 4.7-39.6 7.5-11.8 2.9-44.2 13.4-46.2 15-.5.4-2.1 1.1-3.5 1.5-4.6 1.4-27.1 12.5-37.8 18.6-16.7 9.6-42.9 27.7-50 34.6-.7.7-3.4 2.9-6 5-6 4.9-28.2 27-35.1 35-12.2 14.3-25.8 33.1-35.3 48.8-23.8 39.5-41 88.3-46.3 131.5-.4 2.5-.8 5.8-1 7.5-2.6 18.3-2.6 65.4-.1 80.5.3 1.4 1.2 7.2 2 13 1.8 12 2.5 15.8 3.2 18.2.3 1 .7 3 1 4.5 1.8 10.1 10 37.1 15.4 50.8 7.8 19.6 18.2 40.4 28.8 57.2 4.6 7.4 15.7 23.3 18.9 27.3.6.8 3.3 4.2 6 7.5 11.6 14.6 36.3 39.3 51.3 51.5 19 15.4 44.7 31.7 67.1 42.7 18.6 9.1 46.8 19.6 61 22.8.9.2 3.4.8 5.5 1.4 2.2.6 7.3 1.8 11.4 2.7 10.5 2.2 11.1 2.4 14.5 2.9 1.7.3 4.1.7 5.5 1 2.8.5 5.6.9 21.5 2.6 17.5 1.8 60.6 1.5 71.2-.5 1.2-.3 4.8-.7 8-1.1 3.2-.3 6.5-.8 7.3-1 .8-.2 3.3-.6 5.5-1 4.8-.7 8.2-1.3 11.5-2 1.4-.4 3.7-.8 5.1-1.1 9.1-1.7 42.9-12 50.4-15.4 1.1-.5 6.5-2.8 12-5.1 10.9-4.6 33.4-16 37.7-19 1.4-1.1 2.9-1.9 3.2-1.9 1 0 21.8-14.1 30.1-20.4 20.8-15.7 43.8-37.7 58-55.2 2.1-2.7 4.2-5.1 4.5-5.4.3-.3 1.9-2.3 3.5-4.5 1.7-2.2 3.2-4.2 3.5-4.5 1.1-1.1 16.5-24 18.9-28.1 15.8-26.9 26.9-51.7 35.5-79.4 1.7-5.6 5.6-20.7 6.2-24.5.3-1.4.7-3.3 1-4.2.3-1 .7-2.8.9-4 .2-1.3.7-3.7.9-5.3 2.1-11.5 2.6-14.7 3.1-20 .4-3.3.9-7.1 1.2-8.5.9-4.3 1.2-59.2.3-65.5-.5-3.3-1.1-8.5-1.4-11.5-.4-3-.8-6.4-1-7.5-.2-1.1-.9-5.4-1.6-9.5-1-6-3.6-18.3-5.4-25.5-.2-.6-.6-2.4-1-4-1.3-5.2-6.6-22.9-7.6-25-.4-1.1-2.5-6.5-4.5-12-3.7-9.9-16.5-36.8-22.6-47.5-13.7-24-34.3-50.6-56.3-72.6-36.6-36.5-76.1-61.9-125.3-80.4-8.5-3.2-26.9-9-33.3-10.5-.8-.2-3.7-.9-6.5-1.5-7.3-1.7-7.9-1.8-20-4-6-1.1-13.5-2.3-16.5-2.5-3-.3-6.4-.7-7.5-1-4.4-.9-45-2.6-45.8-1.9z"/></svg>